#N canvas 470 103 1101 969 10;
#X obj 476 55 netreceive -u 5400;
#X obj 34 26 loadbang;
#X text 613 55 Signals from Guitar Hero controller;
#X floatatom 332 113 5 0 0 0 - - -;
#X floatatom 383 113 5 0 0 0 - - -;
#X floatatom 434 113 5 0 0 0 - - -;
#X floatatom 485 113 5 0 0 0 - - -;
#X obj 476 82 unpack f f f f f f f f f f f f;
#X floatatom 538 113 5 0 0 0 - - -;
#X floatatom 589 114 5 0 0 0 - - -;
#X floatatom 639 114 5 0 0 0 - - -;
#X floatatom 692 114 5 0 0 0 - - -;
#X floatatom 746 114 5 0 0 0 - - -;
#X floatatom 793 113 5 0 0 0 - - -;
#X floatatom 859 112 5 0 0 0 - - -;
#X floatatom 901 111 5 0 0 0 - - -;
#X msg 111 53 \; pd dsp \$1 \;;
#X msg 47 197 60000;
#X obj 48 219 /;
#X obj 47 173 t b f;
#X obj 48 241 int;
#X msg 88 125 120;
#X obj 46 150 +;
#X obj 75 151 int;
#X obj 48 266 / 4;
#X obj 401 199 s scale;
#X obj 581 197 s arp;
#X obj 48 295 s userBPM;
#X msg 519 401 30 32 35 36 30 32 35 38 30 32 35 40 30 32 35 45;
#X msg 519 481 44 46 48 50 52 54 56 58 60 62 64 66 68 70 72 74;
#X obj 383 378 r scale;
#X obj 383 401 sel 0 1 2 3 4;
#X obj 34 374 tgl 15 0 empty empty empty 17 7 0 10 -262144 -1 -1 1
1;
#X obj 34 427 f;
#X obj 34 458 mod 16;
#X obj 34 522 hradio 15 1 0 16 empty empty empty 0 -8 0 10 -262144
-1 -1 7;
#X obj 66 427 + 1;
#X obj 34 394 metro 500;
#X obj 109 434 r arp;
#X obj 109 398 r userBPM;
#X obj 229 650 mtof;
#X obj 231 915 dac~;
#X obj 34 547 sel 0 1 2 3 4 5 6 7 8 9 10 11 12 13 14 15;
#X obj 400 519 unpack f f f f f f f f f f f f f f f f;
#X obj 34 598 f;
#X obj 61 598 f;
#X obj 88 598 f;
#X obj 112 598 f;
#X obj 140 598 f;
#X obj 167 598 f;
#X obj 193 598 f;
#X obj 219 598 f;
#X obj 247 598 f;
#X obj 275 598 f;
#X obj 302 598 f;
#X obj 328 597 f;
#X obj 355 596 f;
#X obj 381 596 f;
#X obj 407 596 f;
#X obj 432 596 f;
#X msg 556 137 -1;
#X msg 606 137 1;
#X msg 299 137 0;
#X msg 401 137 2;
#X msg 452 136 3;
#X msg 505 136 4;
#X msg 350 137 1;
#X obj 299 164 spigot;
#X obj 350 163 spigot;
#X obj 401 162 spigot;
#X obj 452 162 spigot;
#X obj 505 161 spigot;
#X obj 556 161 spigot;
#X obj 606 161 spigot;
#X obj 659 160 spigot;
#X obj 713 160 spigot;
#X msg 659 136 -10;
#X msg 713 136 10;
#X obj 229 775 wrap~;
#X obj 230 858 lop~ 100;
#X obj 652 790 * 75;
#X obj 654 634 r joyx;
#X obj 652 767 r joyy;
#X obj 859 197 s joyx;
#X obj 901 197 s joyy;
#X msg 705 774 250;
#X obj 652 817 - 430;
#X obj 793 234 expr if($f1>1 \, 0 \, 1) \;;
#X obj 793 263 s whammy;
#X obj 113 357 r whammy;
#X obj 652 842 expr if($f1<60 \, 60 \, $f1) \;;
#X text 145 25 on load turn on audio;
#X msg 111 26 1;
#X obj 46 124 r bpm;
#X msg 519 457 37 36 35 37 36 35 37 36 35 37 36 35 27 28 30 35;
#X msg 518 371 39 35 29 17 39 35 29 17 32 29 29 32 29 29 39 29;
#X msg 519 430 29 29 39 39 29 29 39 29 24 24 25 26 27 28 30 29;
#X obj 229 722 osc~ 1000;
#X obj 654 706 +~ 1;
#X obj 654 683 osc~;
#X obj 654 731 *~ 0.5;
#X obj 230 748 *~;
#X obj 654 659 * 5;
#X text 186 397 Sequencer speed from guitar;
#X text 826 365 These are the 16-step note sequences played by the
sequencer. Values here are midi note numbers. You can change them to
play whatever tune you want but there should always be 16 values;
#X text 111 324 SEQUENCER SECTION;
#X obj 683 197 s bpm;
#X text 126 723 Main oscillator;
#X text 270 652 Convert midi to frequency;
#X text 516 681 Modulating oscillator;
#X text 743 631 Joystick X-axis drives a modulating oscillator that
is slightly out of phase with the main oscillator which produces a
detuned effect when moved to either extreme;
#X text 759 761 Joystick Y-axis controls a low-pass filter These numbers
work well for the note ranges in the sequences above but can be adjusted.
;
#X text 817 844 This expression sets the floor of the cutoff frequency
to keep it from completely muting all frequencies. Floor is set to
60Hz but can be adjusted to taste.;
#X text 286 916 Output sound to audio;
#X text 183 352 Whammy pauses the sequencer;
#X text 160 435 Play sequence forward/backward;
#X text 44 104 BPM controls;
#X connect 0 0 7 0;
#X connect 1 0 21 0;
#X connect 1 0 32 0;
#X connect 1 0 92 0;
#X connect 1 0 95 0;
#X connect 3 0 67 1;
#X connect 3 0 62 0;
#X connect 4 0 68 1;
#X connect 4 0 66 0;
#X connect 5 0 69 1;
#X connect 5 0 63 0;
#X connect 6 0 64 0;
#X connect 6 0 70 1;
#X connect 7 0 3 0;
#X connect 7 1 4 0;
#X connect 7 2 5 0;
#X connect 7 3 6 0;
#X connect 7 4 8 0;
#X connect 7 5 9 0;
#X connect 7 6 10 0;
#X connect 7 7 11 0;
#X connect 7 8 12 0;
#X connect 7 9 13 0;
#X connect 7 10 14 0;
#X connect 7 11 15 0;
#X connect 8 0 65 0;
#X connect 8 0 71 1;
#X connect 9 0 60 0;
#X connect 9 0 72 1;
#X connect 10 0 61 0;
#X connect 10 0 73 1;
#X connect 11 0 76 0;
#X connect 11 0 74 1;
#X connect 12 0 77 0;
#X connect 12 0 75 1;
#X connect 13 0 87 0;
#X connect 14 0 83 0;
#X connect 15 0 84 0;
#X connect 17 0 18 0;
#X connect 18 0 20 0;
#X connect 19 0 17 0;
#X connect 19 1 18 1;
#X connect 20 0 24 0;
#X connect 21 0 23 0;
#X connect 22 0 23 0;
#X connect 23 0 22 1;
#X connect 23 0 19 0;
#X connect 24 0 27 0;
#X connect 28 0 43 0;
#X connect 29 0 43 0;
#X connect 30 0 31 0;
#X connect 31 0 95 0;
#X connect 31 1 28 0;
#X connect 31 2 96 0;
#X connect 31 3 94 0;
#X connect 31 4 29 0;
#X connect 32 0 37 0;
#X connect 33 0 34 0;
#X connect 33 0 36 0;
#X connect 34 0 35 0;
#X connect 35 0 42 0;
#X connect 36 0 33 1;
#X connect 37 0 33 0;
#X connect 38 0 36 1;
#X connect 39 0 37 1;
#X connect 40 0 97 0;
#X connect 42 0 44 0;
#X connect 42 1 45 0;
#X connect 42 2 46 0;
#X connect 42 3 47 0;
#X connect 42 4 48 0;
#X connect 42 5 49 0;
#X connect 42 6 50 0;
#X connect 42 7 51 0;
#X connect 42 8 52 0;
#X connect 42 9 53 0;
#X connect 42 10 54 0;
#X connect 42 11 55 0;
#X connect 42 12 56 0;
#X connect 42 13 57 0;
#X connect 42 14 58 0;
#X connect 42 15 59 0;
#X connect 43 0 44 1;
#X connect 43 1 45 1;
#X connect 43 2 46 1;
#X connect 43 3 47 1;
#X connect 43 4 48 1;
#X connect 43 5 49 1;
#X connect 43 6 50 1;
#X connect 43 7 51 1;
#X connect 43 8 52 1;
#X connect 43 9 53 1;
#X connect 43 10 54 1;
#X connect 43 11 55 1;
#X connect 43 12 56 1;
#X connect 43 13 57 1;
#X connect 43 14 58 1;
#X connect 43 15 59 1;
#X connect 44 0 40 0;
#X connect 45 0 40 0;
#X connect 46 0 40 0;
#X connect 47 0 40 0;
#X connect 48 0 40 0;
#X connect 49 0 40 0;
#X connect 50 0 40 0;
#X connect 51 0 40 0;
#X connect 52 0 40 0;
#X connect 53 0 40 0;
#X connect 54 0 40 0;
#X connect 55 0 40 0;
#X connect 56 0 40 0;
#X connect 57 0 40 0;
#X connect 58 0 40 0;
#X connect 59 0 40 0;
#X connect 60 0 72 0;
#X connect 61 0 73 0;
#X connect 62 0 67 0;
#X connect 63 0 69 0;
#X connect 64 0 70 0;
#X connect 65 0 71 0;
#X connect 66 0 68 0;
#X connect 67 0 25 0;
#X connect 68 0 25 0;
#X connect 69 0 25 0;
#X connect 70 0 25 0;
#X connect 71 0 25 0;
#X connect 72 0 26 0;
#X connect 73 0 26 0;
#X connect 74 0 106 0;
#X connect 75 0 106 0;
#X connect 76 0 74 0;
#X connect 77 0 75 0;
#X connect 78 0 79 0;
#X connect 79 0 41 0;
#X connect 79 0 41 1;
#X connect 80 0 86 0;
#X connect 81 0 102 0;
#X connect 82 0 80 0;
#X connect 85 0 80 1;
#X connect 86 0 90 0;
#X connect 87 0 88 0;
#X connect 89 0 32 0;
#X connect 90 0 79 1;
#X connect 92 0 16 0;
#X connect 93 0 22 0;
#X connect 94 0 43 0;
#X connect 95 0 43 0;
#X connect 96 0 43 0;
#X connect 97 0 101 0;
#X connect 98 0 100 0;
#X connect 99 0 98 0;
#X connect 100 0 101 1;
#X connect 101 0 78 0;
#X connect 102 0 99 0;
