#N canvas 1075 260 831 743 10;
#X obj 189 380 osc~ 440;
#X obj 230 439 *~;
#X obj 340 392 vsl 15 50 0 0.5 0 0 empty empty empty 0 -9 0 10 -262144
-1 -1 0 1;
#X obj 233 488 env~;
#X obj 229 614 vu 15 120 empty empty -1 -8 0 10 -66577 -1 1 0;
#X floatatom 293 563 5 0 0 0 - - -;
#X floatatom 336 497 5 0 0 0 - - -;
#X floatatom 159 507 5 0 0 0 - - -;
#X obj 237 525 - 100;
#X obj 157 473 dac~ 1 2;
#X obj 424 313 r audio_on_off;
#X obj 81 302 s audio_on_off;
#X msg 423 340 \; pd dsp \$1 \;;
#X obj 83 204 print;
#X obj 157 150 netreceive -u 5400;
#X obj 244 302 s freq;
#X obj 190 354 r freq;
#X obj 179 301 s volume;
#X obj 159 262 route 0 1 2;
#X obj 326 339 r volume;
#X connect 0 0 1 0;
#X connect 1 0 3 0;
#X connect 1 0 9 0;
#X connect 1 0 9 1;
#X connect 2 0 6 0;
#X connect 2 0 1 1;
#X connect 3 0 7 0;
#X connect 3 0 8 0;
#X connect 8 0 4 0;
#X connect 8 0 5 0;
#X connect 10 0 12 0;
#X connect 14 0 13 0;
#X connect 14 0 18 0;
#X connect 16 0 0 0;
#X connect 18 0 11 0;
#X connect 18 1 17 0;
#X connect 18 2 15 0;
#X connect 19 0 2 0;
